<svg width="52" height="200" viewBox="0 0 52 200" fill="none" xmlns="http://www.w3.org/2000/svg">
<rect width="100" height="100" transform="matrix(1 0 0 -1 -48 100)" fill="#2C6269"/>
<path fill-rule="evenodd" clip-rule="evenodd" d="M-48 200C-103.228 200 -148 155.228 -148 100C-148 44.7715 -103.228 0 -48 0C7.22847 0 52 44.7715 52 100C52 155.228 7.22847 200 -48 200ZM-48 133C-66.2254 133 -81 118.225 -81 100C-81 81.7746 -66.2254 67 -48 67C-29.7746 67 -15 81.7746 -15 100C-15 118.225 -29.7746 133 -48 133Z" fill="#012F34"/>
<path fill-rule="evenodd" clip-rule="evenodd" d="M-48 56H52V60H-48V56ZM-48 64H52V68H-48V64ZM52 72H-48V76H52V72ZM-48 80H52V84H-48V80ZM52 88H-48V92H52V88ZM-48 96H52V100H-48V96Z" fill="#79C8C7"/>
<path fill-rule="evenodd" clip-rule="evenodd" d="M52 100H48V104H52V100ZM41 100H45V104H41V100ZM41 108H45V112H41V108ZM45 116H41V120H45V116ZM41 124H45V128H41V124ZM45 132H41V136H45V132ZM41 140H45V144H41V140ZM38 100H34V104H38V100ZM38 108H34V112H38V108ZM34 116H38V120H34V116ZM38 124H34V128H38V124ZM34 132H38V136H34V132ZM38 140H34V144H38V140ZM52 108H48V112H52V108ZM31 100H27V104H31V100ZM31 108H27V112H31V108ZM27 116H31V120H27V116ZM31 124H27V128H31V124ZM27 132H31V136H27V132ZM31 140H27V144H31V140ZM52 116H48V120H52V116ZM24 100H20V104H24V100ZM24 108H20V112H24V108ZM20 116H24V120H20V116ZM24 124H20V128H24V124ZM20 132H24V136H20V132ZM24 140H20V144H24V140ZM52 124H48V128H52V124ZM17 100H13V104H17V100ZM17 108H13V112H17V108ZM13 116H17V120H13V116ZM17 124H13V128H17V124ZM13 132H17V136H13V132ZM17 140H13V144H17V140ZM52 132H48V136H52V132ZM10 100H6V104H10V100ZM10 108H6V112H10V108ZM6 116H10V120H6V116ZM10 124H6V128H10V124ZM6 132H10V136H6V132ZM10 140H6V144H10V140ZM52 140H48V144H52V140ZM3 100H-1V104H3V100ZM3 108H-1V112H3V108ZM-1 116H3V120H-1V116ZM3 124H-1V128H3V124ZM-1 132H3V136H-1V132ZM3 140H-1V144H3V140Z" fill="#F67E7E"/>
</svg>
